999
Generated by Cutz - cut list optimizer
999
material: 18mm birch ply (18mm)
999
sheet: 1 of 3
999
stock: 2440 x 1220 mm
999
kerf: 3mm, edge trim: 5mm
999
waste: 4.1%
999
drawing units: mm
999
generated: 2026-01-15T09:30:00.000Z
  0
SECTION
  2
HEADER
  9
$ACADVER
  1
AC1009
  9
$INSUNITS
 70
     4
  9
$EXTMIN
 10
0.0
 20
0.0
 30
0.0
  9
$EXTMAX
 10
2440.0
 20
1220.0
 30
0.0
  0
ENDSEC
  0
SECTION
  2
TABLES
  0
TABLE
  2
LTYPE
 70
     1
  0
LTYPE
  2
CONTINUOUS
 70
     0
  3
Solid line
 72
    65
 73
     0
 40
0.0
  0
ENDTAB
  0
TABLE
  2
LAYER
 70
     5
  0
LAYER
  2
SHEET
 70
     0
 62
     7
  6
CONTINUOUS
  0
LAYER
  2
TRIM
 70
     0
 62
     8
  6
CONTINUOUS
  0
LAYER
  2
PARTS
 70
     0
 62
     5
  6
CONTINUOUS
  0
LAYER
  2
CUTS
 70
     0
 62
     1
  6
CONTINUOUS
  0
LAYER
  2
LABELS
 70
     0
 62
     3
  6
CONTINUOUS
  0
ENDTAB
  0
ENDSEC
  0
SECTION
  2
ENTITIES
  0
POLYLINE
  8
SHEET
 66
     1
 70
     1
 10
0.0
 20
0.0
 30
0.0
  0
VERTEX
  8
SHEET
 10
0.0
 20
1220.0
 30
0.0
  0
VERTEX
  8
SHEET
 10
2440.0
 20
1220.0
 30
0.0
  0
VERTEX
  8
SHEET
 10
2440.0
 20
0.0
 30
0.0
  0
VERTEX
  8
SHEET
 10
0.0
 20
0.0
 30
0.0
  0
SEQEND
  8
SHEET
  0
POLYLINE
  8
TRIM
 66
     1
 70
     1
 10
0.0
 20
0.0
 30
0.0
  0
VERTEX
  8
TRIM
 10
5.0
 20
1215.0
 30
0.0
  0
VERTEX
  8
TRIM
 10
2435.0
 20
1215.0
 30
0.0
  0
VERTEX
  8
TRIM
 10
2435.0
 20
5.0
 30
0.0
  0
VERTEX
  8
TRIM
 10
5.0
 20
5.0
 30
0.0
  0
SEQEND
  8
TRIM
  0
POLYLINE
  8
PARTS
 66
     1
 70
     1
 10
0.0
 20
0.0
 30
0.0
  0
VERTEX
  8
PARTS
 10
5.0
 20
1215.0
 30
0.0
  0
VERTEX
  8
PARTS
 10
1605.0
 20
1215.0
 30
0.0
  0
VERTEX
  8
PARTS
 10
1605.0
 20
915.0
 30
0.0
  0
VERTEX
  8
PARTS
 10
5.0
 20
915.0
 30
0.0
  0
SEQEND
  8
PARTS
  0
TEXT
  8
LABELS
 10
805.0
 20
1069.8
 30
0.0
 40
16.0
  1
Side
 72
     1
 11
805.0
 21
1069.8
 31
0.0
 73
     2
  0
TEXT
  8
LABELS
 10
805.0
 20
1055.4
 30
0.0
 40
12.0
  1
1600 x 300
 72
     1
 11
805.0
 21
1055.4
 31
0.0
 73
     2
  0
POLYLINE
  8
PARTS
 66
     1
 70
     1
 10
0.0
 20
0.0
 30
0.0
  0
VERTEX
  8
PARTS
 10
5.0
 20
912.0
 30
0.0
  0
VERTEX
  8
PARTS
 10
1605.0
 20
912.0
 30
0.0
  0
VERTEX
  8
PARTS
 10
1605.0
 20
612.0
 30
0.0
  0
VERTEX
  8
PARTS
 10
5.0
 20
612.0
 30
0.0
  0
SEQEND
  8
PARTS
  0
TEXT
  8
LABELS
 10
805.0
 20
766.8
 30
0.0
 40
16.0
  1
Side
 72
     1
 11
805.0
 21
766.8
 31
0.0
 73
     2
  0
TEXT
  8
LABELS
 10
805.0
 20
752.4
 30
0.0
 40
12.0
  1
1600 x 300
 72
     1
 11
805.0
 21
752.4
 31
0.0
 73
     2
  0
POLYLINE
  8
PARTS
 66
     1
 70
     1
 10
0.0
 20
0.0
 30
0.0
  0
VERTEX
  8
PARTS
 10
5.0
 20
609.0
 30
0.0
  0
VERTEX
  8
PARTS
 10
1605.0
 20
609.0
 30
0.0
  0
VERTEX
  8
PARTS
 10
1605.0
 20
309.0
 30
0.0
  0
VERTEX
  8
PARTS
 10
5.0
 20
309.0
 30
0.0
  0
SEQEND
  8
PARTS
  0
TEXT
  8
LABELS
 10
805.0
 20
463.8
 30
0.0
 40
16.0
  1
Side
 72
     1
 11
805.0
 21
463.8
 31
0.0
 73
     2
  0
TEXT
  8
LABELS
 10
805.0
 20
449.4
 30
0.0
 40
12.0
  1
1600 x 300
 72
     1
 11
805.0
 21
449.4
 31
0.0
 73
     2
  0
POLYLINE
  8
PARTS
 66
     1
 70
     1
 10
0.0
 20
0.0
 30
0.0
  0
VERTEX
  8
PARTS
 10
5.0
 20
306.0
 30
0.0
  0
VERTEX
  8
PARTS
 10
1605.0
 20
306.0
 30
0.0
  0
VERTEX
  8
PARTS
 10
1605.0
 20
6.0
 30
0.0
  0
VERTEX
  8
PARTS
 10
5.0
 20
6.0
 30
0.0
  0
SEQEND
  8
PARTS
  0
TEXT
  8
LABELS
 10
805.0
 20
160.8
 30
0.0
 40
16.0
  1
Side
 72
     1
 11
805.0
 21
160.8
 31
0.0
 73
     2
  0
TEXT
  8
LABELS
 10
805.0
 20
146.4
 30
0.0
 40
12.0
  1
1600 x 300
 72
     1
 11
805.0
 21
146.4
 31
0.0
 73
     2
  0
POLYLINE
  8
PARTS
 66
     1
 70
     1
 10
0.0
 20
0.0
 30
0.0
  0
VERTEX
  8
PARTS
 10
1608.0
 20
1215.0
 30
0.0
  0
VERTEX
  8
PARTS
 10
2388.0
 20
1215.0
 30
0.0
  0
VERTEX
  8
PARTS
 10
2388.0
 20
915.0
 30
0.0
  0
VERTEX
  8
PARTS
 10
1608.0
 20
915.0
 30
0.0
  0
SEQEND
  8
PARTS
  0
TEXT
  8
LABELS
 10
1998.0
 20
1069.8
 30
0.0
 40
16.0
  1
Shelf
 72
     1
 11
1998.0
 21
1069.8
 31
0.0
 73
     2
  0
TEXT
  8
LABELS
 10
1998.0
 20
1055.4
 30
0.0
 40
12.0
  1
780 x 300
 72
     1
 11
1998.0
 21
1055.4
 31
0.0
 73
     2
  0
POLYLINE
  8
PARTS
 66
     1
 70
     1
 10
0.0
 20
0.0
 30
0.0
  0
VERTEX
  8
PARTS
 10
1608.0
 20
912.0
 30
0.0
  0
VERTEX
  8
PARTS
 10
2388.0
 20
912.0
 30
0.0
  0
VERTEX
  8
PARTS
 10
2388.0
 20
612.0
 30
0.0
  0
VERTEX
  8
PARTS
 10
1608.0
 20
612.0
 30
0.0
  0
SEQEND
  8
PARTS
  0
TEXT
  8
LABELS
 10
1998.0
 20
766.8
 30
0.0
 40
16.0
  1
Shelf
 72
     1
 11
1998.0
 21
766.8
 31
0.0
 73
     2
  0
TEXT
  8
LABELS
 10
1998.0
 20
752.4
 30
0.0
 40
12.0
  1
780 x 300
 72
     1
 11
1998.0
 21
752.4
 31
0.0
 73
     2
  0
POLYLINE
  8
PARTS
 66
     1
 70
     1
 10
0.0
 20
0.0
 30
0.0
  0
VERTEX
  8
PARTS
 10
1608.0
 20
609.0
 30
0.0
  0
VERTEX
  8
PARTS
 10
2388.0
 20
609.0
 30
0.0
  0
VERTEX
  8
PARTS
 10
2388.0
 20
309.0
 30
0.0
  0
VERTEX
  8
PARTS
 10
1608.0
 20
309.0
 30
0.0
  0
SEQEND
  8
PARTS
  0
TEXT
  8
LABELS
 10
1998.0
 20
463.8
 30
0.0
 40
16.0
  1
Shelf
 72
     1
 11
1998.0
 21
463.8
 31
0.0
 73
     2
  0
TEXT
  8
LABELS
 10
1998.0
 20
449.4
 30
0.0
 40
12.0
  1
780 x 300
 72
     1
 11
1998.0
 21
449.4
 31
0.0
 73
     2
  0
POLYLINE
  8
PARTS
 66
     1
 70
     1
 10
0.0
 20
0.0
 30
0.0
  0
VERTEX
  8
PARTS
 10
1608.0
 20
306.0
 30
0.0
  0
VERTEX
  8
PARTS
 10
2388.0
 20
306.0
 30
0.0
  0
VERTEX
  8
PARTS
 10
2388.0
 20
6.0
 30
0.0
  0
VERTEX
  8
PARTS
 10
1608.0
 20
6.0
 30
0.0
  0
SEQEND
  8
PARTS
  0
TEXT
  8
LABELS
 10
1998.0
 20
160.8
 30
0.0
 40
16.0
  1
Shelf
 72
     1
 11
1998.0
 21
160.8
 31
0.0
 73
     2
  0
TEXT
  8
LABELS
 10
1998.0
 20
146.4
 30
0.0
 40
12.0
  1
780 x 300
 72
     1
 11
1998.0
 21
146.4
 31
0.0
 73
     2
  0
LINE
  8
CUTS
 10
0.0
 20
1218.0
 30
0.0
 11
2440.0
 21
1218.0
 31
0.0
  0
LINE
  8
CUTS
 10
0.0
 20
5.0
 30
0.0
 11
2440.0
 21
5.0
 31
0.0
  0
LINE
  8
CUTS
 10
2.0
 20
1215.0
 30
0.0
 11
2.0
 21
5.0
 31
0.0
  0
LINE
  8
CUTS
 10
2435.0
 20
1215.0
 30
0.0
 11
2435.0
 21
5.0
 31
0.0
  0
LINE
  8
CUTS
 10
5.0
 20
915.0
 30
0.0
 11
2435.0
 21
915.0
 31
0.0
  0
LINE
  8
CUTS
 10
1605.0
 20
1215.0
 30
0.0
 11
1605.0
 21
915.0
 31
0.0
  0
LINE
  8
CUTS
 10
2388.0
 20
1215.0
 30
0.0
 11
2388.0
 21
915.0
 31
0.0
  0
LINE
  8
CUTS
 10
5.0
 20
612.0
 30
0.0
 11
2435.0
 21
612.0
 31
0.0
  0
LINE
  8
CUTS
 10
1605.0
 20
912.0
 30
0.0
 11
1605.0
 21
612.0
 31
0.0
  0
LINE
  8
CUTS
 10
2388.0
 20
912.0
 30
0.0
 11
2388.0
 21
612.0
 31
0.0
  0
LINE
  8
CUTS
 10
5.0
 20
309.0
 30
0.0
 11
2435.0
 21
309.0
 31
0.0
  0
LINE
  8
CUTS
 10
1605.0
 20
609.0
 30
0.0
 11
1605.0
 21
309.0
 31
0.0
  0
LINE
  8
CUTS
 10
2388.0
 20
609.0
 30
0.0
 11
2388.0
 21
309.0
 31
0.0
  0
LINE
  8
CUTS
 10
1605.0
 20
306.0
 30
0.0
 11
1605.0
 21
5.0
 31
0.0
  0
LINE
  8
CUTS
 10
5.0
 20
6.0
 30
0.0
 11
1605.0
 21
6.0
 31
0.0
  0
LINE
  8
CUTS
 10
1608.0
 20
6.0
 30
0.0
 11
2435.0
 21
6.0
 31
0.0
  0
LINE
  8
CUTS
 10
2388.0
 20
306.0
 30
0.0
 11
2388.0
 21
6.0
 31
0.0
  0
ENDSEC
  0
EOF
